<svg width="180" height="180" viewBox="0 0 180 180" fill="none" xmlns="http://www.w3.org/2000/svg">
  <!-- Background with rounded corners -->
  <rect width="180" height="180" rx="40" fill="#1e40af"/>
  
  <!-- Event/calendar icon -->
  <rect x="45" y="50" width="90" height="80" rx="8" fill="white"/>
  <rect x="45" y="50" width="90" height="25" rx="8" fill="#3b82f6"/>
  
  <!-- Calendar holes -->
  <circle cx="70" cy="35" r="6" fill="#64748b"/>
  <circle cx="110" cy="35" r="6" fill="#64748b"/>
  
  <!-- Event dots -->
  <circle cx="70" cy="90" r="8" fill="#ef4444"/>
  <circle cx="90" cy="90" r="8" fill="#10b981"/>
  <circle cx="110" cy="90" r="8" fill="#f59e0b"/>
  
  <!-- Calendar grid -->
  <line x1="55" y1="105" x2="125" y2="105" stroke="#e5e7eb" stroke-width="2"/>
  <line x1="55" y1="115" x2="125" y2="115" stroke="#e5e7eb" stroke-width="2"/>
  <line x1="75" y1="80" x2="75" y2="125" stroke="#e5e7eb" stroke-width="2"/>
  <line x1="105" y1="80" x2="105" y2="125" stroke="#e5e7eb" stroke-width="2"/>
  
  <!-- Kolkata/Event theme elements -->
  <circle cx="65" cy="110" r="3" fill="#8b5cf6"/>
  <circle cx="85" cy="110" r="3" fill="#ec4899"/>
  <circle cx="105" cy="110" r="3" fill="#06b6d4"/>
  
  <circle cx="75" cy="120" r="3" fill="#84cc16"/>
  <circle cx="95" cy="120" r="3" fill="#f97316"/>
</svg>
